<svg width="1280" height="720" xmlns="http://www.w3.org/2000/svg" xmlns:xlink="http://www.w3.org/1999/xlink" overflow="hidden"><defs><clipPath id="clip0"><path d="M0 0 1280 0 1280 720 0 720Z" fill-rule="evenodd" clip-rule="evenodd"/></clipPath><clipPath id="clip1"><path d="M66-113 517-113 517 1299 66 1299Z" fill-rule="evenodd" clip-rule="evenodd"/></clipPath><clipPath id="clip2"><path d="M66-113 517-113 517 1299 66 1299Z" fill-rule="evenodd" clip-rule="evenodd"/></clipPath><clipPath id="clip3"><path d="M66-113 517-113 517 1299 66 1299Z" fill-rule="evenodd" clip-rule="evenodd"/></clipPath><clipPath id="clip4"><path d="M66-113 517-113 517 1299 66 1299Z" fill-rule="evenodd" clip-rule="evenodd"/></clipPath><clipPath id="clip5"><path d="M66-113 517-113 517 1299 66 1299Z" fill-rule="evenodd" clip-rule="evenodd"/></clipPath><clipPath id="clip6"><path d="M66-113 517-113 517 1299 66 1299Z" fill-rule="evenodd" clip-rule="evenodd"/></clipPath><clipPath id="clip7"><path d="M66-113 517-113 517 1299 66 1299Z" fill-rule="evenodd" clip-rule="evenodd"/></clipPath><clipPath id="clip8"><path d="M516-26 872-26 872 1184 516 1184Z" fill-rule="evenodd" clip-rule="evenodd"/></clipPath><clipPath id="clip9"><path d="M516-26 872-26 872 1184 516 1184Z" fill-rule="evenodd" clip-rule="evenodd"/></clipPath><clipPath id="clip10"><path d="M516-26 872-26 872 1184 516 1184Z" fill-rule="evenodd" clip-rule="evenodd"/></clipPath><clipPath id="clip11"><path d="M516-26 872-26 872 1184 516 1184Z" fill-rule="evenodd" clip-rule="evenodd"/></clipPath><clipPath id="clip12"><path d="M516-26 872-26 872 1184 516 1184Z" fill-rule="evenodd" clip-rule="evenodd"/></clipPath><clipPath id="clip13"><path d="M516-26 872-26 872 1184 516 1184Z" fill-rule="evenodd" clip-rule="evenodd"/></clipPath><clipPath id="clip14"><path d="M516-26 872-26 872 1184 516 1184Z" fill-rule="evenodd" clip-rule="evenodd"/></clipPath><clipPath id="clip15"><path d="M871-113 1227-113 1227 1299 871 1299Z" fill-rule="evenodd" clip-rule="evenodd"/></clipPath><clipPath id="clip16"><path d="M871-113 1227-113 1227 1299 871 1299Z" fill-rule="evenodd" clip-rule="evenodd"/></clipPath><clipPath id="clip17"><path d="M871-113 1227-113 1227 1299 871 1299Z" fill-rule="evenodd" clip-rule="evenodd"/></clipPath><clipPath id="clip18"><path d="M871-113 1227-113 1227 1299 871 1299Z" fill-rule="evenodd" clip-rule="evenodd"/></clipPath><clipPath id="clip19"><path d="M871-113 1227-113 1227 1299 871 1299Z" fill-rule="evenodd" clip-rule="evenodd"/></clipPath></defs><g clip-path="url(#clip0)"><rect x="0" y="0" width="1280" height="720" fill="#FFFFFF"/><path d="M66.0711 54.1186 482.796 54.1186 482.796 93.052 66.0711 93.052Z" fill="#4472C4" fill-rule="evenodd"/><path d="M66.0711 93.052 353.243 93.052 353.243 131.985 66.0711 131.985Z" fill="#CFD5EA" fill-rule="evenodd"/><path d="M353.243 93.052 482.796 93.052 482.796 131.985 353.243 131.985Z" fill="#CFD5EA" fill-rule="evenodd"/><path d="M353.243 91.052 353.243 132.652" stroke="#FFFFFF" stroke-width="1.33333" stroke-linejoin="round" stroke-miterlimit="10" fill="none" fill-rule="evenodd"/><path d="M65.4044 93.052 483.463 93.052" stroke="#FFFFFF" stroke-width="4" stroke-linejoin="round" stroke-miterlimit="10" fill="none" fill-rule="evenodd"/><path d="M66.0711 53.452 66.0711 132.652" stroke="#FFFFFF" stroke-width="1.33333" stroke-linejoin="round" stroke-miterlimit="10" fill="none" fill-rule="evenodd"/><path d="M482.796 53.452 482.796 132.652" stroke="#FFFFFF" stroke-width="1.33333" stroke-linejoin="round" stroke-miterlimit="10" fill="none" fill-rule="evenodd"/><path d="M65.4044 54.1186 483.463 54.1186" stroke="#FFFFFF" stroke-width="1.33333" stroke-linejoin="round" stroke-miterlimit="10" fill="none" fill-rule="evenodd"/><path d="M65.4044 131.985 483.463 131.985" stroke="#FFFFFF" stroke-width="1.33333" stroke-linejoin="round" stroke-miterlimit="10" fill="none" fill-rule="evenodd"/><text fill="#FFFFFF" font-family="DengXian,DengXian_MSFontService,sans-serif" font-weight="700" font-size="24" transform="translate(182.1 81)">MyClass函数对象<tspan fill="#000000" font-weight="400" x="-71.1101" y="39">MyCLass.prototype</tspan><tspan fill="#000000" font-weight="400" x="205.336" y="39">0x123</tspan></text><path d="M771.184 54.5777 1187.91 54.5777 1187.91 93.5111 771.184 93.5111Z" fill="#4472C4" fill-rule="evenodd"/><path d="M771.184 93.5111 979.547 93.5111 979.547 132.444 771.184 132.444Z" fill="#CFD5EA" fill-rule="evenodd"/><path d="M979.547 93.5111 1187.91 93.5111 1187.91 132.444 979.547 132.444Z" fill="#CFD5EA" fill-rule="evenodd"/><path d="M771.184 132.444 979.547 132.444 979.547 171.378 771.184 171.378Z" fill="#E9EBF5" fill-rule="evenodd"/><path d="M979.547 132.444 1187.91 132.444 1187.91 171.378 979.547 171.378Z" fill="#E9EBF5" fill-rule="evenodd"/><path d="M771.184 171.378 979.547 171.378 979.547 210.311 771.184 210.311Z" fill="#CFD5EA" fill-rule="evenodd"/><path d="M979.547 171.378 1187.91 171.378 1187.91 210.311 979.547 210.311Z" fill="#CFD5EA" fill-rule="evenodd"/><path d="M979.547 91.5111 979.547 210.978" stroke="#FFFFFF" stroke-width="1.33333" stroke-linejoin="round" stroke-miterlimit="10" fill="none" fill-rule="evenodd"/><path d="M770.518 93.5111 1188.58 93.5111" stroke="#FFFFFF" stroke-width="4" stroke-linejoin="round" stroke-miterlimit="10" fill="none" fill-rule="evenodd"/><path d="M770.518 132.444 1188.58 132.444" stroke="#FFFFFF" stroke-width="1.33333" stroke-linejoin="round" stroke-miterlimit="10" fill="none" fill-rule="evenodd"/><path d="M770.518 171.378 1188.58 171.378" stroke="#FFFFFF" stroke-width="1.33333" stroke-linejoin="round" stroke-miterlimit="10" fill="none" fill-rule="evenodd"/><path d="M771.184 53.9111 771.184 210.978" stroke="#FFFFFF" stroke-width="1.33333" stroke-linejoin="round" stroke-miterlimit="10" fill="none" fill-rule="evenodd"/><path d="M1187.91 53.9111 1187.91 210.978" stroke="#FFFFFF" stroke-width="1.33333" stroke-linejoin="round" stroke-miterlimit="10" fill="none" fill-rule="evenodd"/><path d="M770.518 54.5777 1188.58 54.5777" stroke="#FFFFFF" stroke-width="1.33333" stroke-linejoin="round" stroke-miterlimit="10" fill="none" fill-rule="evenodd"/><path d="M770.518 210.311 1188.58 210.311" stroke="#FFFFFF" stroke-width="1.33333" stroke-linejoin="round" stroke-miterlimit="10" fill="none" fill-rule="evenodd"/><text fill="#FFFFFF" font-family="DengXian,DengXian_MSFontService,sans-serif" font-weight="700" font-size="24" transform="translate(874.88 82)">原型对象（0x123<tspan x="185.333" y="0">）</tspan><tspan fill="#000000" font-weight="400" x="-5.51465" y="39">a</tspan><tspan fill="#000000" font-weight="400" x="189.848" y="39">123</tspan><tspan fill="#000000" font-weight="400" x="-42.7646" y="78">sayHello</tspan><tspan fill="#000000" font-weight="400" x="144.348" y="78">function(){…}</tspan><tspan fill="#000000" font-weight="400" x="-48.1813" y="116">__proto__</tspan><tspan fill="#000000" font-weight="400" x="178.265" y="116">0x223</tspan></text><path d="M0.0427361-0.330582 281.82 36.0962 281.734 36.7574-0.0427361 0.330582ZM280.967 32.2888 288.388 37.2815 279.941 40.2228Z" fill="#4472C4" transform="matrix(1 0 0 -1 483.5 112.782)"/><path d="M66.071 160.569 482.796 160.569 482.796 199.502 66.071 199.502Z" fill="#4472C4" fill-rule="evenodd"/><path d="M66.071 199.502 353.243 199.502 353.243 238.436 66.071 238.436Z" fill="#CFD5EA" fill-rule="evenodd"/><path d="M353.243 199.502 482.796 199.502 482.796 238.436 353.243 238.436Z" fill="#CFD5EA" fill-rule="evenodd"/><path d="M66.071 238.436 353.243 238.436 353.243 277.369 66.071 277.369Z" fill="#E9EBF5" fill-rule="evenodd"/><path d="M353.243 238.436 482.796 238.436 482.796 277.369 353.243 277.369Z" fill="#E9EBF5" fill-rule="evenodd"/><path d="M353.243 197.502 353.243 278.036" stroke="#FFFFFF" stroke-width="1.33333" stroke-linejoin="round" stroke-miterlimit="10" fill="none" fill-rule="evenodd"/><path d="M65.4043 199.502 483.463 199.502" stroke="#FFFFFF" stroke-width="4" stroke-linejoin="round" stroke-miterlimit="10" fill="none" fill-rule="evenodd"/><path d="M65.4043 238.436 483.463 238.436" stroke="#FFFFFF" stroke-width="1.33333" stroke-linejoin="round" stroke-miterlimit="10" fill="none" fill-rule="evenodd"/><path d="M66.071 159.902 66.071 278.036" stroke="#FFFFFF" stroke-width="1.33333" stroke-linejoin="round" stroke-miterlimit="10" fill="none" fill-rule="evenodd"/><path d="M482.796 159.902 482.796 278.036" stroke="#FFFFFF" stroke-width="1.33333" stroke-linejoin="round" stroke-miterlimit="10" fill="none" fill-rule="evenodd"/><path d="M65.4043 160.569 483.463 160.569" stroke="#FFFFFF" stroke-width="1.33333" stroke-linejoin="round" stroke-miterlimit="10" fill="none" fill-rule="evenodd"/><path d="M65.4043 277.369 483.463 277.369" stroke="#FFFFFF" stroke-width="1.33333" stroke-linejoin="round" stroke-miterlimit="10" fill="none" fill-rule="evenodd"/><text fill="#FFFFFF" font-family="DengXian,DengXian_MSFontService,sans-serif" font-weight="700" font-size="24" transform="translate(107.767 188)">通过<tspan x="48" y="0">MyClass</tspan>创建的对象<tspan x="263.333" y="0">：</tspan>mc1<tspan fill="#000000" font-weight="400" x="28.7233" y="39">mc1.__proto__</tspan><tspan fill="#000000" font-weight="400" x="279.669" y="39">0x123</tspan></text><path d="M0.15012-0.297616 282.587 142.166 282.287 142.761-0.15012 0.297616ZM283.047 138.292 288.388 145.466 279.444 145.434Z" fill="#4472C4" transform="matrix(1 0 0 -1 483.5 219.966)"/><path d="M66.071 301.676 482.796 301.676 482.796 340.457 66.071 340.457Z" fill="#4472C4" fill-rule="evenodd"/><path d="M66.071 340.457 353.243 340.457 353.243 379.391 66.071 379.391Z" fill="#CFD5EA" fill-rule="evenodd"/><path d="M353.243 340.457 482.796 340.457 482.796 379.391 353.243 379.391Z" fill="#CFD5EA" fill-rule="evenodd"/><path d="M66.071 379.391 353.243 379.391 353.243 418.324 66.071 418.324Z" fill="#E9EBF5" fill-rule="evenodd"/><path d="M353.243 379.391 482.796 379.391 482.796 418.324 353.243 418.324Z" fill="#E9EBF5" fill-rule="evenodd"/><path d="M353.243 338.457 353.243 418.991" stroke="#FFFFFF" stroke-width="1.33333" stroke-linejoin="round" stroke-miterlimit="10" fill="none" fill-rule="evenodd"/><path d="M65.4043 340.457 483.463 340.457" stroke="#FFFFFF" stroke-width="4" stroke-linejoin="round" stroke-miterlimit="10" fill="none" fill-rule="evenodd"/><path d="M65.4043 379.391 483.463 379.391" stroke="#FFFFFF" stroke-width="1.33333" stroke-linejoin="round" stroke-miterlimit="10" fill="none" fill-rule="evenodd"/><path d="M66.071 301.009 66.071 418.991" stroke="#FFFFFF" stroke-width="1.33333" stroke-linejoin="round" stroke-miterlimit="10" fill="none" fill-rule="evenodd"/><path d="M482.796 301.009 482.796 418.991" stroke="#FFFFFF" stroke-width="1.33333" stroke-linejoin="round" stroke-miterlimit="10" fill="none" fill-rule="evenodd"/><path d="M65.4043 301.676 483.463 301.676" stroke="#FFFFFF" stroke-width="1.33333" stroke-linejoin="round" stroke-miterlimit="10" fill="none" fill-rule="evenodd"/><path d="M65.4043 418.324 483.463 418.324" stroke="#FFFFFF" stroke-width="1.33333" stroke-linejoin="round" stroke-miterlimit="10" fill="none" fill-rule="evenodd"/><text fill="#FFFFFF" font-family="DengXian,DengXian_MSFontService,sans-serif" font-weight="700" font-size="24" transform="translate(107.767 329)">通过<tspan x="48" y="0">MyClass</tspan>创建的对象<tspan x="263.333" y="0">：</tspan>mc2<tspan fill="#000000" font-weight="400" x="28.7233" y="39">mc2.__proto__</tspan><tspan fill="#000000" font-weight="400" x="279.669" y="39">0x123</tspan><tspan fill="#000000" font-weight="400" x="95.8899" y="77">a</tspan><tspan fill="#000000" font-weight="400" x="277.419" y="77">mc2_a</tspan></text><path d="M0.234925-0.236476 283.894 281.562 283.424 282.035-0.234925 0.236476ZM285.532 278.021 288.388 286.497 279.894 283.696Z" fill="#4472C4" transform="matrix(1 0 0 -1 483.5 360.997)"/><path d="M66.071 449.331 1226.56 449.331 1226.56 487.731 66.071 487.731Z" fill="#FFC000" fill-rule="evenodd"/><path d="M66.071 487.731 516.349 487.731 516.349 698.931 66.071 698.931Z" fill="#CFD5EA" fill-rule="evenodd"/><path d="M516.349 487.731 871.456 487.731 871.456 698.931 516.349 698.931Z" fill="#CFD5EA" fill-rule="evenodd"/><path d="M871.456 487.731 1226.56 487.731 1226.56 698.931 871.456 698.931Z" fill="#CFD5EA" fill-rule="evenodd"/><path d="M516.349 485.731 516.349 699.598" stroke="#FFFFFF" stroke-width="1.33333" stroke-linejoin="round" stroke-miterlimit="10" fill="none" fill-rule="evenodd"/><path d="M871.456 485.731 871.456 699.598" stroke="#FFFFFF" stroke-width="1.33333" stroke-linejoin="round" stroke-miterlimit="10" fill="none" fill-rule="evenodd"/><path d="M65.4043 487.731 1227.23 487.731" stroke="#FFFFFF" stroke-width="4" stroke-linejoin="round" stroke-miterlimit="10" fill="none" fill-rule="evenodd"/><path d="M66.071 448.665 66.071 699.598" stroke="#FFFFFF" stroke-width="1.33333" stroke-linejoin="round" stroke-miterlimit="10" fill="none" fill-rule="evenodd"/><path d="M1226.56 448.665 1226.56 699.598" stroke="#FFFFFF" stroke-width="1.33333" stroke-linejoin="round" stroke-miterlimit="10" fill="none" fill-rule="evenodd"/><path d="M65.4043 449.331 1227.23 449.331" stroke="#FFFFFF" stroke-width="1.33333" stroke-linejoin="round" stroke-miterlimit="10" fill="none" fill-rule="evenodd"/><path d="M65.4043 698.931 1227.23 698.931" stroke="#FFFFFF" stroke-width="1.33333" stroke-linejoin="round" stroke-miterlimit="10" fill="none" fill-rule="evenodd"/><text fill="#FFFFFF" font-family="DengXian,DengXian_MSFontService,sans-serif" font-weight="700" font-size="24" transform="translate(622.317 476)">代码</text><g clip-path="url(#clip1)"><text font-family="DengXian,DengXian_MSFontService,sans-serif" font-weight="400" font-size="24" transform="translate(75.671 515)">function</text></g><text font-family="DengXian,DengXian_MSFontService,sans-serif" font-weight="400" font-size="24" transform="translate(166.338 515)">MyClass<tspan x="83.8333" y="0">()</tspan><tspan x="104.333" y="0">{}</tspan></text><g clip-path="url(#clip2)"><text font-family="DengXian,DengXian_MSFontService,sans-serif" font-style="oblique" font-weight="400" font-size="24" transform="translate(75.671 544)">//</text></g><text font-family="DengXian,DengXian_MSFontService,sans-serif" font-style="oblique" font-weight="400" font-size="24" transform="translate(93.671 544)">向MyClass<tspan x="107.833" y="0">的原型中添加一个属性</tspan>a</text><g clip-path="url(#clip3)"><text font-family="DengXian,DengXian_MSFontService,sans-serif" font-weight="400" font-size="24" transform="translate(75.671 573)">MyClass.prototype.a</text></g><text font-family="DengXian,DengXian_MSFontService,sans-serif" font-weight="400" font-size="24" transform="translate(291.004 573)">=<tspan x="22.5" y="0">123;</tspan></text><g clip-path="url(#clip4)"><text font-family="DengXian,DengXian_MSFontService,sans-serif" font-style="oblique" font-weight="400" font-size="24" transform="translate(75.671 602)">//</text></g><text font-family="DengXian,DengXian_MSFontService,sans-serif" font-style="oblique" font-weight="400" font-size="24" transform="translate(93.671 602)">向MyClass<tspan x="107.833" y="0">原型中添加一个方法</tspan></text><g clip-path="url(#clip5)"><text font-family="DengXian,DengXian_MSFontService,sans-serif" font-weight="400" font-size="24" transform="translate(75.671 631)">MyClass.prototype.sayHello</text></g><text font-family="DengXian,DengXian_MSFontService,sans-serif" font-weight="400" font-size="24" transform="translate(365.504 631)">=<tspan x="22.5" y="0">function</tspan><tspan x="113.167" y="0">()</tspan></text><g clip-path="url(#clip6)"><text font-family="DengXian,DengXian_MSFontService,sans-serif" font-weight="400" font-size="24" transform="translate(499.171 631)">{</text></g><text font-family="DengXian,DengXian_MSFontService,sans-serif" font-weight="400" font-size="24" transform="translate(108.171 659)">console.log("hello!!");</text><g clip-path="url(#clip7)"><text font-family="DengXian,DengXian_MSFontService,sans-serif" font-weight="400" font-size="24" transform="translate(75.671 688)">};</text></g><g clip-path="url(#clip8)"><text font-family="DengXian,DengXian_MSFontService,sans-serif" font-weight="400" font-size="24" transform="translate(525.95 515)">var</text></g><text font-family="DengXian,DengXian_MSFontService,sans-serif" font-weight="400" font-size="24" transform="translate(563.783 515)">mc1<tspan x="50.1667" y="0">=</tspan><tspan x="72.6667" y="0">new</tspan><tspan x="121.5" y="0">MyClass</tspan><tspan x="205.333" y="0">();</tspan></text><g clip-path="url(#clip9)"><text font-family="DengXian,DengXian_MSFontService,sans-serif" font-weight="400" font-size="24" transform="translate(525.95 544)">var</text></g><text font-family="DengXian,DengXian_MSFontService,sans-serif" font-weight="400" font-size="24" transform="translate(563.783 544)">mc2<tspan x="50.1667" y="0">=</tspan><tspan x="72.6667" y="0">new</tspan><tspan x="121.5" y="0">MyClass</tspan><tspan x="205.333" y="0">();</tspan></text><g clip-path="url(#clip10)"><text font-family="DengXian,DengXian_MSFontService,sans-serif" font-weight="400" font-size="24" transform="translate(525.95 573)">mc2.a</text></g><text font-family="DengXian,DengXian_MSFontService,sans-serif" font-weight="400" font-size="24" transform="translate(593.45 573)">=<tspan x="22.5" y="0">"mc2_a";</tspan></text><g clip-path="url(#clip11)"><text font-family="DengXian,DengXian_MSFontService,sans-serif" font-weight="400" font-size="24" transform="translate(525.95 602)">//</text></g><text font-family="DengXian,DengXian_MSFontService,sans-serif" font-weight="400" font-size="24" transform="translate(543.95 602)">原型的原型</text><g clip-path="url(#clip12)"><text font-family="DengXian,DengXian_MSFontService,sans-serif" font-weight="400" font-size="24" transform="translate(525.95 631)">console.log(</text></g><g clip-path="url(#clip13)"><text font-family="DengXian,DengXian_MSFontService,sans-serif" font-weight="400" font-size="24" transform="translate(650.45 631)">mc.hasOwnProperty</text></g><g clip-path="url(#clip14)"><text font-family="DengXian,DengXian_MSFontService,sans-serif" font-weight="400" font-size="24" transform="translate(525.95 659)">("</text></g><text font-family="DengXian,DengXian_MSFontService,sans-serif" font-weight="400" font-size="24" transform="translate(541.616 659)">hasOwnProperty"));<tspan font-style="oblique" x="206" y="0">//false</tspan><tspan x="345.94" y="-144">console.log(mc.__proto__.</tspan><tspan x="609.44" y="-144">hasO</tspan></text><g clip-path="url(#clip15)"><text font-family="DengXian,DengXian_MSFontService,sans-serif" font-weight="400" font-size="24" transform="translate(881.056 544)">wnProperty</text></g><text font-family="DengXian,DengXian_MSFontService,sans-serif" font-weight="400" font-size="24" transform="translate(999.39 544)">("<tspan x="15.6667" y="0">hasOwnProperty</tspan></text><g clip-path="url(#clip16)"><text font-family="DengXian,DengXian_MSFontService,sans-serif" font-weight="400" font-size="24" transform="translate(1186.56 544)">"));</text></g><text font-family="DengXian,DengXian_MSFontService,sans-serif" font-style="oblique" font-weight="400" font-size="24" transform="translate(887.556 573)">//false</text><g clip-path="url(#clip17)"><text font-family="DengXian,DengXian_MSFontService,sans-serif" font-weight="400" font-size="24" transform="translate(881.056 602)">console.log(mc.__proto__.__prot</text></g><g clip-path="url(#clip18)"><text font-family="DengXian,DengXian_MSFontService,sans-serif" font-weight="400" font-size="24" transform="translate(881.056 631)">o__.</text></g><text font-family="DengXian,DengXian_MSFontService,sans-serif" font-weight="400" font-size="24" transform="translate(920.223 631)">hasOwnProperty("<tspan x="187.167" y="0">hasOwnPr</tspan></text><g clip-path="url(#clip19)"><text font-family="DengXian,DengXian_MSFontService,sans-serif" font-weight="400" font-size="24" transform="translate(881.056 659)">operty</text></g><text font-family="DengXian,DengXian_MSFontService,sans-serif" font-weight="400" font-size="24" transform="translate(948.056 659)">"));<tspan font-style="oblique" x="34.5" y="0">//true</tspan></text><path d="M771.184 240.587 1187.91 240.587 1187.91 279.52 771.184 279.52Z" fill="#4472C4" fill-rule="evenodd"/><path d="M771.184 279.52 979.547 279.52 979.547 318.453 771.184 318.453Z" fill="#CFD5EA" fill-rule="evenodd"/><path d="M979.547 279.52 1187.91 279.52 1187.91 318.453 979.547 318.453Z" fill="#CFD5EA" fill-rule="evenodd"/><path d="M771.184 318.453 979.547 318.453 979.547 356.853 771.184 356.853Z" fill="#E9EBF5" fill-rule="evenodd"/><path d="M979.547 318.453 1187.91 318.453 1187.91 356.853 979.547 356.853Z" fill="#E9EBF5" fill-rule="evenodd"/><path d="M979.547 277.52 979.547 357.52" stroke="#FFFFFF" stroke-width="1.33333" stroke-linejoin="round" stroke-miterlimit="10" fill="none" fill-rule="evenodd"/><path d="M770.518 279.52 1188.58 279.52" stroke="#FFFFFF" stroke-width="4" stroke-linejoin="round" stroke-miterlimit="10" fill="none" fill-rule="evenodd"/><path d="M770.518 318.453 1188.58 318.453" stroke="#FFFFFF" stroke-width="1.33333" stroke-linejoin="round" stroke-miterlimit="10" fill="none" fill-rule="evenodd"/><path d="M771.184 239.92 771.184 357.52" stroke="#FFFFFF" stroke-width="1.33333" stroke-linejoin="round" stroke-miterlimit="10" fill="none" fill-rule="evenodd"/><path d="M1187.91 239.92 1187.91 357.52" stroke="#FFFFFF" stroke-width="1.33333" stroke-linejoin="round" stroke-miterlimit="10" fill="none" fill-rule="evenodd"/><path d="M770.518 240.587 1188.58 240.587" stroke="#FFFFFF" stroke-width="1.33333" stroke-linejoin="round" stroke-miterlimit="10" fill="none" fill-rule="evenodd"/><path d="M770.518 356.853 1188.58 356.853" stroke="#FFFFFF" stroke-width="1.33333" stroke-linejoin="round" stroke-miterlimit="10" fill="none" fill-rule="evenodd"/><text fill="#FFFFFF" font-family="DengXian,DengXian_MSFontService,sans-serif" font-weight="700" font-size="24" transform="translate(874.88 268)">原型对象（0x223<tspan x="185.333" y="0">）</tspan><tspan fill="#000000" font-weight="400" x="-48.1813" y="39">__proto__</tspan><tspan fill="#000000" font-weight="400" x="178.265" y="39">0x223</tspan></text><path d="M0.427962-0.903797 222.313 104.162 221.457 105.97-0.427962 0.903797ZM222.391 100.88 227.909 107.919 218.967 108.11Z" fill="#0D0D0D" transform="matrix(-1 -8.74228e-08 -8.74228e-08 1 1187.91 191)"/></g></svg>