<svg width="1280" height="720" xmlns="http://www.w3.org/2000/svg" xmlns:xlink="http://www.w3.org/1999/xlink" overflow="hidden"><defs><clipPath id="clip0"><path d="M0 0 1280 0 1280 720 0 720Z" fill-rule="evenodd" clip-rule="evenodd"/></clipPath><clipPath id="clip1"><path d="M254 475 520 475 520 678 254 678Z" fill-rule="evenodd" clip-rule="evenodd"/></clipPath><clipPath id="clip2"><path d="M254 475 520 475 520 678 254 678Z" fill-rule="evenodd" clip-rule="evenodd"/></clipPath><clipPath id="clip3"><path d="M600 277 787 277 787 681 600 681Z" fill-rule="evenodd" clip-rule="evenodd"/></clipPath><clipPath id="clip4"><path d="M600 277 787 277 787 681 600 681Z" fill-rule="evenodd" clip-rule="evenodd"/></clipPath><clipPath id="clip5"><path d="M600 277 787 277 787 681 600 681Z" fill-rule="evenodd" clip-rule="evenodd"/></clipPath><clipPath id="clip6"><path d="M600 277 787 277 787 681 600 681Z" fill-rule="evenodd" clip-rule="evenodd"/></clipPath><clipPath id="clip7"><path d="M65-845 462-845 462 1172 65 1172Z" fill-rule="evenodd" clip-rule="evenodd"/></clipPath><clipPath id="clip8"><path d="M65-845 462-845 462 1172 65 1172Z" fill-rule="evenodd" clip-rule="evenodd"/></clipPath><clipPath id="clip9"><path d="M65-845 462-845 462 1172 65 1172Z" fill-rule="evenodd" clip-rule="evenodd"/></clipPath><clipPath id="clip10"><path d="M65-845 462-845 462 1172 65 1172Z" fill-rule="evenodd" clip-rule="evenodd"/></clipPath><clipPath id="clip11"><path d="M65-845 462-845 462 1172 65 1172Z" fill-rule="evenodd" clip-rule="evenodd"/></clipPath><clipPath id="clip12"><path d="M65-845 462-845 462 1172 65 1172Z" fill-rule="evenodd" clip-rule="evenodd"/></clipPath><clipPath id="clip13"><path d="M65-845 462-845 462 1172 65 1172Z" fill-rule="evenodd" clip-rule="evenodd"/></clipPath><clipPath id="clip14"><path d="M65-845 462-845 462 1172 65 1172Z" fill-rule="evenodd" clip-rule="evenodd"/></clipPath><clipPath id="clip15"><path d="M65-845 462-845 462 1172 65 1172Z" fill-rule="evenodd" clip-rule="evenodd"/></clipPath><clipPath id="clip16"><path d="M461-845 1249-845 1249 1172 461 1172Z" fill-rule="evenodd" clip-rule="evenodd"/></clipPath><clipPath id="clip17"><path d="M461-845 1249-845 1249 1172 461 1172Z" fill-rule="evenodd" clip-rule="evenodd"/></clipPath><clipPath id="clip18"><path d="M461-845 1249-845 1249 1172 461 1172Z" fill-rule="evenodd" clip-rule="evenodd"/></clipPath><clipPath id="clip19"><path d="M461-845 1249-845 1249 1172 461 1172Z" fill-rule="evenodd" clip-rule="evenodd"/></clipPath><clipPath id="clip20"><path d="M461-845 1249-845 1249 1172 461 1172Z" fill-rule="evenodd" clip-rule="evenodd"/></clipPath><clipPath id="clip21"><path d="M461-845 1249-845 1249 1172 461 1172Z" fill-rule="evenodd" clip-rule="evenodd"/></clipPath><clipPath id="clip22"><path d="M461-845 1249-845 1249 1172 461 1172Z" fill-rule="evenodd" clip-rule="evenodd"/></clipPath><clipPath id="clip23"><path d="M461-845 1249-845 1249 1172 461 1172Z" fill-rule="evenodd" clip-rule="evenodd"/></clipPath><clipPath id="clip24"><path d="M461-845 1249-845 1249 1172 461 1172Z" fill-rule="evenodd" clip-rule="evenodd"/></clipPath></defs><g clip-path="url(#clip0)"><rect x="0" y="0" width="1280" height="720" fill="#FFFFFF"/><path d="M568.533 323.191 1248.93 323.191 1248.93 634.658 568.533 634.658Z" fill="#4472C4" fill-rule="evenodd"/><path d="M568.533 322.525 568.533 636.658" stroke="#FFFFFF" stroke-width="1.33333" stroke-linejoin="round" stroke-miterlimit="10" fill="none" fill-rule="evenodd"/><path d="M1248.93 322.525 1248.93 636.658" stroke="#FFFFFF" stroke-width="1.33333" stroke-linejoin="round" stroke-miterlimit="10" fill="none" fill-rule="evenodd"/><path d="M567.867 323.191 1249.6 323.191" stroke="#FFFFFF" stroke-width="1.33333" stroke-linejoin="round" stroke-miterlimit="10" fill="none" fill-rule="evenodd"/><path d="M567.867 634.658 1249.6 634.658" stroke="#FFFFFF" stroke-width="4" stroke-linejoin="round" stroke-miterlimit="10" fill="none" fill-rule="evenodd"/><rect x="125.5" y="654.5" width="169" height="48" stroke="#2F528F" stroke-width="1.33333" stroke-miterlimit="8" fill="#4472C4"/><text fill="#FFFFFF" font-family="DengXian,DengXian_MSFontService,sans-serif" font-weight="400" font-size="24" transform="translate(173.657 685)">栈内存</text><rect x="786.5" y="654.5" width="169" height="48" stroke="#2F528F" stroke-width="1.33333" stroke-miterlimit="8" fill="#4472C4"/><text fill="#FFFFFF" font-family="DengXian,DengXian_MSFontService,sans-serif" font-weight="400" font-size="24" transform="translate(834.68 685)">堆内存</text><path d="M110.809 323.191 254.039 323.191 254.039 362.125 110.809 362.125Z" fill="#4472C4" fill-rule="evenodd"/><path d="M254.039 323.191 519.467 323.191 519.467 362.125 254.039 362.125Z" fill="#4472C4" fill-rule="evenodd"/><path d="M110.809 362.125 254.039 362.125 254.039 401.058 110.809 401.058Z" fill="#CFD5EA" fill-rule="evenodd"/><path d="M254.039 362.125 519.467 362.125 519.467 401.058 254.039 401.058Z" fill="#CFD5EA" fill-rule="evenodd"/><path d="M110.809 401.058 254.039 401.058 254.039 439.991 110.809 439.991Z" fill="#E9EBF5" fill-rule="evenodd"/><path d="M254.039 401.058 519.467 401.058 519.467 439.991 254.039 439.991Z" fill="#E9EBF5" fill-rule="evenodd"/><path d="M110.809 439.991 254.039 439.991 254.039 478.925 110.809 478.925Z" fill="#CFD5EA" fill-rule="evenodd"/><path d="M254.039 439.991 519.467 439.991 519.467 478.925 254.039 478.925Z" fill="#CFD5EA" fill-rule="evenodd"/><path d="M110.809 478.925 254.039 478.925 254.039 517.858 110.809 517.858Z" fill="#E9EBF5" fill-rule="evenodd"/><path d="M254.039 478.925 519.467 478.925 519.467 517.858 254.039 517.858Z" fill="#E9EBF5" fill-rule="evenodd"/><path d="M110.809 517.858 254.039 517.858 254.039 556.792 110.809 556.792Z" fill="#CFD5EA" fill-rule="evenodd"/><path d="M254.039 517.858 519.467 517.858 519.467 556.792 254.039 556.792Z" fill="#CFD5EA" fill-rule="evenodd"/><path d="M110.809 556.792 254.039 556.792 254.039 595.725 110.809 595.725Z" fill="#E9EBF5" fill-rule="evenodd"/><path d="M254.039 556.792 519.467 556.792 519.467 595.725 254.039 595.725Z" fill="#E9EBF5" fill-rule="evenodd"/><path d="M110.809 595.725 254.039 595.725 254.039 634.658 110.809 634.658Z" fill="#CFD5EA" fill-rule="evenodd"/><path d="M254.039 595.725 519.467 595.725 519.467 634.658 254.039 634.658Z" fill="#CFD5EA" fill-rule="evenodd"/><path d="M254.039 322.525 254.039 635.325" stroke="#FFFFFF" stroke-width="1.33333" stroke-linejoin="round" stroke-miterlimit="10" fill="none" fill-rule="evenodd"/><path d="M110.142 362.125 520.133 362.125" stroke="#FFFFFF" stroke-width="4" stroke-linejoin="round" stroke-miterlimit="10" fill="none" fill-rule="evenodd"/><path d="M110.142 401.058 520.133 401.058" stroke="#FFFFFF" stroke-width="1.33333" stroke-linejoin="round" stroke-miterlimit="10" fill="none" fill-rule="evenodd"/><path d="M110.142 439.991 520.133 439.991" stroke="#FFFFFF" stroke-width="1.33333" stroke-linejoin="round" stroke-miterlimit="10" fill="none" fill-rule="evenodd"/><path d="M110.142 478.925 520.133 478.925" stroke="#FFFFFF" stroke-width="1.33333" stroke-linejoin="round" stroke-miterlimit="10" fill="none" fill-rule="evenodd"/><path d="M110.142 517.858 520.133 517.858" stroke="#FFFFFF" stroke-width="1.33333" stroke-linejoin="round" stroke-miterlimit="10" fill="none" fill-rule="evenodd"/><path d="M110.142 556.792 520.133 556.792" stroke="#FFFFFF" stroke-width="1.33333" stroke-linejoin="round" stroke-miterlimit="10" fill="none" fill-rule="evenodd"/><path d="M110.142 595.725 520.133 595.725" stroke="#FFFFFF" stroke-width="1.33333" stroke-linejoin="round" stroke-miterlimit="10" fill="none" fill-rule="evenodd"/><path d="M110.809 322.525 110.809 635.325" stroke="#FFFFFF" stroke-width="1.33333" stroke-linejoin="round" stroke-miterlimit="10" fill="none" fill-rule="evenodd"/><path d="M519.467 322.525 519.467 635.325" stroke="#FFFFFF" stroke-width="1.33333" stroke-linejoin="round" stroke-miterlimit="10" fill="none" fill-rule="evenodd"/><path d="M110.142 323.191 520.133 323.191" stroke="#FFFFFF" stroke-width="1.33333" stroke-linejoin="round" stroke-miterlimit="10" fill="none" fill-rule="evenodd"/><path d="M110.142 634.658 520.133 634.658" stroke="#FFFFFF" stroke-width="1.33333" stroke-linejoin="round" stroke-miterlimit="10" fill="none" fill-rule="evenodd"/><text fill="#FFFFFF" font-family="DengXian,DengXian_MSFontService,sans-serif" font-weight="700" font-size="24" transform="translate(158.424 350)">变量<tspan x="216.329" y="0">值</tspan><tspan fill="#000000" font-weight="400" x="1.16661" y="156">obj2</tspan><tspan fill="#000000" font-weight="400" x="156.495" y="156">0x123 </tspan><tspan fill="#000000" font-weight="400" x="263.162" y="156">null</tspan></text><path d="M314.673 500.991 348.673 500.991 382.673 500.991 382.673 501.991 348.673 501.991 314.673 501.991Z" fill-rule="evenodd"/><path d="M314.673 498.991 348.673 498.991 382.673 498.991 382.673 499.991 348.673 499.991 314.673 499.991Z" fill-rule="evenodd"/><text font-family="DengXian,DengXian_MSFontService,sans-serif" font-weight="400" font-size="24" transform="translate(159.591 545)">obj1<tspan x="196.579" y="0">0x123</tspan><tspan x="15.9167" y="39">b</tspan></text><g clip-path="url(#clip1)"><text font-family="DengXian,DengXian_MSFontService,sans-serif" font-weight="400" font-size="24" transform="translate(263.836 584)">123(</text></g><text font-family="DengXian,DengXian_MSFontService,sans-serif" font-weight="400" font-size="24" transform="translate(308.836 584)">从a复制并复制给</text><g clip-path="url(#clip2)"><text font-family="DengXian,DengXian_MSFontService,sans-serif" font-weight="400" font-size="24" transform="translate(488.836 584)">b)</text></g><text font-family="DengXian,DengXian_MSFontService,sans-serif" font-weight="400" font-size="24" transform="translate(176.424 623)">a<tspan x="123.829" y="0">123</tspan>(a++)      124</text><path d="M300.673 617.792 338.673 617.792 338.673 618.792 300.673 618.792Z" fill-rule="evenodd"/><path d="M300.673 615.792 338.673 615.792 338.673 616.792 300.673 616.792Z" fill-rule="evenodd"/><path d="M404.5 617.167 422.367 617.167 422.367 617.833 404.5 617.833ZM421.033 613.5 429.033 617.5 421.033 621.5Z" fill="#4472C4"/><path d="M600.135 406.925 786.532 406.925 786.532 445.325 600.135 445.325Z" fill="#ED7D31" fill-rule="evenodd"/><path d="M600.135 445.325 786.532 445.325 786.532 512.525 600.135 512.525Z" fill="#ED7D31" fill-rule="evenodd"/><path d="M600.135 512.525 786.532 512.525 786.532 550.925 600.135 550.925Z" fill="#E9EBF5" fill-rule="evenodd"/><path d="M599.468 445.325 787.199 445.325" stroke="#FFFFFF" stroke-width="4" stroke-linejoin="round" stroke-miterlimit="10" fill="none" fill-rule="evenodd"/><path d="M599.468 512.525 787.199 512.525" stroke="#FFFFFF" stroke-width="1.33333" stroke-linejoin="round" stroke-miterlimit="10" fill="none" fill-rule="evenodd"/><path d="M600.135 406.258 600.135 551.591" stroke="#FFFFFF" stroke-width="1.33333" stroke-linejoin="round" stroke-miterlimit="10" fill="none" fill-rule="evenodd"/><path d="M786.532 406.258 786.532 551.591" stroke="#FFFFFF" stroke-width="1.33333" stroke-linejoin="round" stroke-miterlimit="10" fill="none" fill-rule="evenodd"/><path d="M599.468 406.925 787.199 406.925" stroke="#FFFFFF" stroke-width="1.33333" stroke-linejoin="round" stroke-miterlimit="10" fill="none" fill-rule="evenodd"/><path d="M599.468 550.925 787.199 550.925" stroke="#FFFFFF" stroke-width="1.33333" stroke-linejoin="round" stroke-miterlimit="10" fill="none" fill-rule="evenodd"/><text fill="#FFFFFF" font-family="DengXian,DengXian_MSFontService,sans-serif" font-weight="700" font-size="24" transform="translate(683.583 434)">…</text><g clip-path="url(#clip3)"><text font-family="DengXian,DengXian_MSFontService,sans-serif" font-weight="400" font-size="24" transform="translate(612 472)">name=“</text></g><text font-family="DengXian,DengXian_MSFontService,sans-serif" font-weight="400" font-size="24" transform="translate(694.167 472)">孙悟空</text><g clip-path="url(#clip4)"><text font-family="DengXian,DengXian_MSFontService,sans-serif" font-weight="400" font-size="24" transform="translate(766.167 472)">”</text></g><path d="M611.753 467.125 652.503 467.125 693.253 467.125 734.003 467.125 774.753 467.125 774.753 468.125 734.003 468.125 693.253 468.125 652.503 468.125 611.753 468.125Z" fill-rule="evenodd"/><path d="M611.753 465.125 652.503 465.125 693.253 465.125 734.003 465.125 774.753 465.125 774.753 466.125 734.003 466.125 693.253 466.125 652.503 466.125 611.753 466.125Z" fill-rule="evenodd"/><g clip-path="url(#clip5)"><text font-family="DengXian,DengXian_MSFontService,sans-serif" font-weight="400" font-size="24" transform="translate(612 501)">name=“</text></g><text font-family="DengXian,DengXian_MSFontService,sans-serif" font-weight="400" font-size="24" transform="translate(694.167 501)">猪八戒</text><g clip-path="url(#clip6)"><text font-family="DengXian,DengXian_MSFontService,sans-serif" font-weight="400" font-size="24" transform="translate(766.167 501)">”</text></g><text font-family="DengXian,DengXian_MSFontService,sans-serif" font-weight="400" font-size="24" transform="translate(662.75 539)">0x123</text><path d="M493 538 576.867 538 576.867 542 493 542ZM574.867 534 586.867 540 574.867 546Z" fill="#0D0D0D"/><path d="M493.721 491.134 578.259 523.797 576.818 527.528 492.279 494.866ZM577.835 519.345 586.867 529.267 573.511 530.539Z" fill="#0D0D0D"/><path d="M65.0667 14.9246 461.867 14.9246 461.867 312.525 65.0667 312.525Z" fill="#E7E6E6" fill-rule="evenodd"/><path d="M461.867 14.9246 1248.93 14.9246 1248.93 312.525 461.867 312.525Z" fill="#E7E6E6" fill-rule="evenodd"/><path d="M461.867 14.258 461.867 314.525" stroke="#FFFFFF" stroke-width="1.33333" stroke-linejoin="round" stroke-miterlimit="10" fill="none" fill-rule="evenodd"/><path d="M65.0667 14.258 65.0667 314.525" stroke="#FFFFFF" stroke-width="1.33333" stroke-linejoin="round" stroke-miterlimit="10" fill="none" fill-rule="evenodd"/><path d="M1248.93 14.258 1248.93 314.525" stroke="#FFFFFF" stroke-width="1.33333" stroke-linejoin="round" stroke-miterlimit="10" fill="none" fill-rule="evenodd"/><path d="M64.4 14.9246 1249.6 14.9246" stroke="#FFFFFF" stroke-width="1.33333" stroke-linejoin="round" stroke-miterlimit="10" fill="none" fill-rule="evenodd"/><path d="M64.4 312.525 1249.6 312.525" stroke="#FFFFFF" stroke-width="4" stroke-linejoin="round" stroke-miterlimit="10" fill="none" fill-rule="evenodd"/><g clip-path="url(#clip7)"><text font-family="DengXian,DengXian_MSFontService,sans-serif" font-weight="700" font-size="24" transform="translate(74.6667 42)">//</text></g><text font-family="DengXian,DengXian_MSFontService,sans-serif" font-weight="700" font-size="24" transform="translate(94.6667 42)">基本数据类型</text><g clip-path="url(#clip8)"><text font-family="DengXian,DengXian_MSFontService,sans-serif" font-weight="700" font-size="24" transform="translate(74.6667 71)">var a = 123;</text></g><g clip-path="url(#clip9)"><text font-family="DengXian,DengXian_MSFontService,sans-serif" font-weight="700" font-size="24" transform="translate(74.6667 100)">var b = a;//123</text></g><g clip-path="url(#clip10)"><text font-family="DengXian,DengXian_MSFontService,sans-serif" font-weight="700" font-size="24" transform="translate(74.6667 129)">a++;//124</text></g><g clip-path="url(#clip11)"><text font-family="DengXian,DengXian_MSFontService,sans-serif" font-weight="700" font-size="24" transform="translate(74.6667 186)">//</text></g><text font-family="DengXian,DengXian_MSFontService,sans-serif" font-weight="700" font-size="24" transform="translate(94.6667 186)">对象</text><g clip-path="url(#clip12)"><text font-family="DengXian,DengXian_MSFontService,sans-serif" font-weight="700" font-size="24" transform="translate(74.6667 215)">var obj1 = new Object();</text></g><g clip-path="url(#clip13)"><text font-family="DengXian,DengXian_MSFontService,sans-serif" font-weight="700" font-size="24" transform="translate(74.6667 244)">obj1.name = “</text></g><text font-family="DengXian,DengXian_MSFontService,sans-serif" font-weight="700" font-size="24" transform="translate(230 244)">孙悟空”;</text><g clip-path="url(#clip14)"><text font-family="DengXian,DengXian_MSFontService,sans-serif" font-weight="700" font-size="24" transform="translate(74.6667 273)">var obj2 = obj1;</text></g><g clip-path="url(#clip15)"><text font-family="DengXian,DengXian_MSFontService,sans-serif" font-weight="700" font-size="24" transform="translate(74.6667 302)">console.log(obj1.name);//</text></g><text font-family="DengXian,DengXian_MSFontService,sans-serif" font-weight="700" font-size="24" transform="translate(356 302)">孙悟空</text><g clip-path="url(#clip16)"><text font-family="DengXian,DengXian_MSFontService,sans-serif" font-weight="700" font-size="24" transform="translate(471.467 42)">console.log(obj2.name);//</text></g><text font-family="DengXian,DengXian_MSFontService,sans-serif" font-weight="700" font-size="24" transform="translate(752.8 42)">孙悟空</text><g clip-path="url(#clip17)"><text font-family="DengXian,DengXian_MSFontService,sans-serif" font-weight="700" font-size="24" transform="translate(471.467 71)">obj2.name = “</text></g><text font-family="DengXian,DengXian_MSFontService,sans-serif" font-weight="700" font-size="24" transform="translate(626.8 71)">猪八戒”;</text><g clip-path="url(#clip18)"><text font-family="DengXian,DengXian_MSFontService,sans-serif" font-weight="700" font-size="24" transform="translate(471.467 100)">console.log(obj1.name);//</text></g><text font-family="DengXian,DengXian_MSFontService,sans-serif" font-weight="700" font-size="24" transform="translate(752.8 100)">猪八戒</text><g clip-path="url(#clip19)"><text font-family="DengXian,DengXian_MSFontService,sans-serif" font-weight="700" font-size="24" transform="translate(471.467 129)">console.log(obj2.name);//</text></g><text font-family="DengXian,DengXian_MSFontService,sans-serif" font-weight="700" font-size="24" transform="translate(752.8 129)">猪八戒</text><g clip-path="url(#clip20)"><text font-family="DengXian,DengXian_MSFontService,sans-serif" font-weight="700" font-size="24" transform="translate(471.467 186)">obj2 = null;//</text></g><text font-family="DengXian,DengXian_MSFontService,sans-serif" font-weight="700" font-size="24" transform="translate(616.467 186)">相当于断开了obj2指向的内存地址，但是obj1</text><g clip-path="url(#clip21)"><text font-family="DengXian,DengXian_MSFontService,sans-serif" font-weight="700" font-size="24" transform="translate(1097.47 186)">并没有断开。</text></g><g clip-path="url(#clip22)"><text font-family="DengXian,DengXian_MSFontService,sans-serif" font-weight="700" font-size="24" transform="translate(471.467 215)">所以将</text></g><text font-family="DengXian,DengXian_MSFontService,sans-serif" font-weight="700" font-size="24" transform="translate(543.467 215)">obj2赋值为null<tspan x="161.167" y="0">，并不会影响</tspan>obj1</text><g clip-path="url(#clip23)"><text font-family="DengXian,DengXian_MSFontService,sans-serif" font-weight="700" font-size="24" transform="translate(471.467 244)">console.log(obj1);</text></g><text font-family="DengXian,DengXian_MSFontService,sans-serif" font-weight="700" font-size="24" transform="translate(672.967 244)">//{name:<tspan x="101.167" y="0">"</tspan>猪八戒"}</text><g clip-path="url(#clip24)"><text font-family="DengXian,DengXian_MSFontService,sans-serif" font-weight="700" font-size="24" transform="translate(471.467 273)">console</text></g><text font-family="DengXian,DengXian_MSFontService,sans-serif" font-weight="700" font-size="24" transform="translate(554.967 273)">.log(obj2);<tspan x="118" y="0">//null</tspan></text><path d="M386.5 501.167 409.555 501.167 409.555 501.833 386.5 501.833ZM408.222 497.5 416.222 501.5 408.222 505.5Z" fill="#4472C4"/><path d="M0 0 28.132 36.8" stroke="#000000" stroke-width="2" stroke-miterlimit="8" fill="none" fill-rule="evenodd" transform="matrix(-1 -8.74228e-08 -8.74228e-08 1 548.132 492)"/><path d="M463.5 501.167 486.555 501.167 486.555 501.833 463.5 501.833ZM485.222 497.5 493.222 501.5 485.222 505.5Z" fill="#4472C4"/></g></svg>